<?xml version="1.0" standalone="no"?>
<!DOCTYPE svg PUBLIC "-//W3C//DTD SVG 20010904//EN"
 "http://www.w3.org/TR/2001/REC-SVG-20010904/DTD/svg10.dtd">
<svg version="1.0" xmlns="http://www.w3.org/2000/svg"
 width="1300.000000pt" height="1300.000000pt" viewBox="0 0 1300.000000 1300.000000"
 preserveAspectRatio="xMidYMid meet">
<metadata>
Created by potrace 1.14, written by Peter Selinger 2001-2017
</metadata>
<g transform="translate(0.000000,1300.000000) scale(0.100000,-0.100000)"
fill="#000000" stroke="none">
<path d="M4265 12159 c-263 -37 -386 -92 -529 -233 -93 -91 -136 -174 -167
-326 -19 -89 -19 -447 -1 -515 41 -150 82 -226 168 -312 60 -60 92 -82 187
-128 62 -31 127 -57 142 -58 26 -2 32 5 64 66 110 208 275 352 529 458 17 8
32 17 32 20 0 3 -19 12 -42 19 -72 23 -171 70 -196 93 -92 85 -75 268 28 319
50 24 110 23 151 -5 53 -35 72 -86 79 -207 l5 -105 195 -6 c107 -4 279 -7 382
-8 l186 -1 6 103 c3 56 9 195 12 309 l6 207 -28 29 c-55 55 -327 192 -424 215
-14 3 -43 11 -65 17 -184 50 -542 74 -720 49z"/>
<path d="M6400 12095 c-245 -29 -411 -89 -538 -194 -71 -59 -143 -165 -171
-251 -27 -82 -53 -221 -49 -263 3 -29 7 -32 38 -35 111 -9 160 -83 125 -187
-24 -71 -38 -83 -107 -91 l-59 -7 89 -47 c132 -70 257 -160 381 -275 69 -64
207 -236 252 -314 19 -33 41 -61 49 -61 37 0 40 18 41 269 0 136 4 361 8 502
8 241 10 259 31 297 53 95 200 97 247 4 15 -31 19 -67 21 -213 l3 -176 196 -6
c108 -4 287 -7 398 -7 l202 0 6 113 c4 61 7 230 7 375 l0 262 -69 45 c-60 39
-164 92 -271 138 -127 54 -328 101 -525 122 -158 17 -161 17 -305 0z"/>
<path d="M4675 11082 c-231 -82 -382 -207 -514 -424 -45 -74 -50 -94 -23 -102
9 -2 51 -14 92 -26 41 -12 93 -26 115 -32 208 -54 289 -99 330 -182 49 -101
44 -241 -11 -314 -66 -86 -179 -82 -246 9 -29 39 -37 91 -38 230 l0 127 -157
4 c-169 5 -193 0 -193 -45 0 -27 -20 -135 -31 -167 -13 -39 -4 107 10 158 6
24 9 47 6 53 -7 11 -432 12 -439 1 -2 -4 -8 -168 -12 -364 l-7 -355 74 -52
c41 -29 110 -69 154 -90 93 -44 243 -97 251 -88 3 3 0 30 -6 59 -38 164 -50
266 -56 462 -3 97 -1 153 5 159 8 8 11 -32 11 -133 0 -148 24 -316 67 -485 17
-68 19 -70 58 -82 158 -48 469 -67 636 -39 62 10 84 18 113 44 101 88 299 205
454 268 105 42 107 43 133 95 28 54 62 157 73 217 5 26 1 38 -18 55 -13 12
-29 40 -36 62 l-13 39 48 44 48 43 -6 112 c-10 160 -40 288 -89 376 -77 137
-230 239 -503 334 -177 62 -184 62 -280 29z m620 -499 c30 -45 30 -48 5 -73
-27 -27 -85 -27 -100 -1 -15 29 -12 77 6 95 27 28 61 20 89 -21z m-275 -652
c0 -13 -26 -32 -33 -24 -14 13 -6 33 13 33 11 0 20 -4 20 -9z m-641 -125 c20
-23 -4 -58 -36 -54 -38 4 -54 35 -29 54 25 18 50 18 65 0z m-72 -158 c32 -30
29 -51 -13 -88 -63 -55 -95 -65 -158 -51 -94 21 -94 45 0 90 32 16 68 38 78
50 24 27 63 27 93 -1z"/>
<path d="M5626 10893 c-8 -29 -12 -711 -4 -718 4 -4 18 6 32 22 19 22 49 37
130 62 102 32 107 33 132 16 15 -9 23 -22 20 -31 -3 -8 -34 -54 -68 -103 l-63
-90 -48 0 c-42 -1 -52 3 -78 31 -16 18 -32 41 -35 50 -8 25 -21 22 -28 -6 -7
-29 9 -198 27 -276 l13 -55 39 1 c22 1 92 9 155 18 117 17 425 25 575 16 l80
-5 3 28 c2 19 -6 42 -24 68 -14 21 -30 60 -35 86 -19 102 -138 313 -249 442
-61 71 -252 247 -345 317 -56 42 -210 144 -218 144 -3 0 -8 -8 -11 -17z"/>
<path d="M6760 10471 c-12 -8 -16 -52 -20 -248 -6 -272 -13 -302 -79 -330 -56
-24 -65 -29 -68 -39 -6 -19 16 -36 53 -44 22 -4 62 -13 89 -19 28 -6 73 -15
100 -20 109 -21 261 -82 508 -205 59 -30 115 -52 125 -49 9 2 28 12 41 22 l25
19 4 275 5 275 -32 16 c-39 20 -40 40 -2 55 24 10 30 20 35 58 10 75 11 73
-39 66 -87 -12 -133 30 -122 111 6 43 5 46 -20 52 -21 6 -31 2 -47 -18 -12
-14 -40 -32 -62 -41 -60 -23 -107 -8 -125 40 -8 22 -12 23 -146 23 -76 0 -154
3 -173 5 -19 3 -42 1 -50 -4z"/>
<path d="M6315 9609 c-266 -23 -495 -60 -495 -80 0 -27 207 -147 280 -162 14
-3 43 -10 65 -16 84 -23 181 -41 216 -41 67 0 66 2 73 -270 11 -450 18 -564
33 -575 12 -9 12 -16 -2 -47 -22 -54 -20 -105 5 -118 19 -10 19 -12 4 -35 -8
-13 -14 -38 -12 -57 l3 -33 100 0 c141 1 455 17 459 24 2 3 0 112 -5 241 -11
264 -6 304 43 345 16 14 40 25 52 25 21 0 24 -6 30 -61 3 -34 6 -119 7 -188 1
-69 4 -164 8 -211 l6 -85 39 59 c43 66 156 296 156 318 0 8 4 18 8 24 5 5 15
29 22 54 8 25 17 50 20 55 4 6 10 21 13 35 3 14 11 43 17 65 29 101 66 288 80
400 15 122 21 118 -164 105 -82 -6 -151 -8 -154 -5 -9 8 29 32 73 45 42 13 65
27 65 40 0 12 -212 77 -295 90 -38 7 -88 16 -110 20 -22 5 -76 14 -120 20 -44
6 -109 16 -144 21 -35 6 -66 8 -68 5 -3 -3 -12 -58 -20 -123 -14 -116 -23
-143 -48 -143 -10 0 -12 26 -8 120 4 89 3 123 -7 135 -14 17 -71 18 -225 4z
m241 -1061 c-11 -15 -16 -18 -16 -7 0 16 21 42 28 34 2 -2 -3 -14 -12 -27z"/>
<path d="M9260 9464 c-207 -32 -359 -97 -462 -196 -78 -76 -118 -128 -118
-154 0 -11 13 -35 29 -54 21 -26 26 -40 21 -55 -14 -36 -50 -160 -50 -173 0
-19 -70 -238 -98 -307 -9 -22 -40 -88 -69 -147 -29 -58 -53 -111 -53 -118 0
-8 32 -11 107 -9 l108 2 36 -50 c46 -62 136 -144 191 -175 112 -62 223 -97
582 -179 63 -15 118 -34 153 -56 31 -18 58 -33 62 -33 9 0 69 258 86 375 9 55
17 153 18 219 l2 119 -122 32 c-142 37 -224 75 -253 115 -30 42 -45 126 -31
177 31 113 155 159 239 88 36 -30 62 -110 63 -191 1 -81 10 -94 64 -94 31 0
47 5 54 17 8 14 12 15 25 4 13 -11 69 -12 288 -6 150 4 283 11 296 16 l22 9
-6 207 c-4 115 -9 251 -13 303 l-6 95 -68 42 c-85 51 -245 116 -352 142 -120
29 -280 52 -303 44 -20 -8 -20 -9 8 -68 16 -33 39 -98 50 -145 12 -47 25 -101
30 -120 4 -19 13 -73 20 -120 6 -47 15 -107 21 -133 12 -63 12 -137 -1 -137
-6 0 -10 26 -10 59 0 33 -4 63 -10 66 -5 3 -10 24 -10 45 0 22 -5 59 -10 82
-60 254 -93 379 -114 424 l-25 54 -148 -1 c-81 -1 -191 -7 -243 -15z"/>
<path d="M8160 9409 c-107 -5 -280 -12 -385 -17 l-190 -7 -7 -55 c-27 -190
-62 -353 -108 -490 -16 -51 -30 -100 -30 -109 0 -9 -4 -21 -8 -27 -4 -5 -14
-27 -21 -49 -35 -103 -97 -228 -190 -380 l-36 -60 2 -135 c2 -74 8 -240 14
-368 7 -128 9 -269 6 -313 l-5 -81 45 7 c25 3 86 20 136 37 196 63 371 165
536 309 l84 73 -7 116 c-3 63 -10 237 -16 385 -5 149 -12 343 -16 433 l-6 162
25 0 c44 0 76 -21 96 -64 17 -35 21 -72 26 -271 3 -126 8 -240 11 -252 4 -22
10 -23 82 -23 42 0 101 3 131 7 l53 6 33 71 c119 260 191 639 183 966 l-3 135
-120 1 c-66 1 -208 -3 -315 -7z"/>
<path d="M5735 9318 c-77 -4 -155 -7 -173 -7 l-33 -1 7 -227 7 -228 36 -35
c55 -54 63 -93 75 -395 l11 -269 25 -12 c30 -15 183 -31 373 -40 75 -4 137
-10 137 -14 0 -4 -42 -10 -93 -13 -84 -6 -139 -1 -379 29 l-58 7 0 -99 c0 -55
5 -220 11 -367 9 -238 8 -274 -6 -317 -19 -57 -36 -74 -95 -95 -79 -28 -159
11 -188 90 -10 29 -25 288 -38 671 -4 106 -9 196 -13 201 -3 5 -26 15 -51 22
-127 39 -160 51 -268 105 -159 79 -231 122 -359 213 -56 40 -107 73 -113 73
-11 0 -8 -190 10 -670 6 -140 12 -313 15 -385 2 -71 7 -142 11 -156 4 -21 29
-41 108 -88 162 -96 318 -156 532 -205 213 -48 324 -60 554 -60 201 1 225 3
363 32 174 36 218 55 229 97 39 143 41 173 35 533 -4 247 -10 358 -18 368 -6
8 -23 14 -38 15 -24 1 -23 2 7 10 l33 10 -3 347 -3 347 24 50 c19 41 22 60 18
112 -2 35 -10 70 -17 78 -15 18 -49 11 -66 -13 -8 -11 -20 -13 -47 -8 -23 4
-43 2 -56 -6 -16 -10 -27 -10 -54 0 -18 7 -45 12 -60 12 -15 0 -37 11 -51 25
-14 14 -35 25 -46 25 -28 0 -104 76 -124 125 -9 20 -16 55 -16 76 0 21 -3 39
-7 41 -5 2 -71 0 -148 -4z"/>
<path d="M5157 9301 c-151 -7 -149 -6 -167 -73 -6 -21 -14 -38 -19 -38 -4 0
-38 18 -75 41 -79 47 -101 46 -93 -6 3 -19 4 -35 3 -35 -2 0 -23 16 -47 35
-24 19 -50 35 -56 35 -7 0 -33 -15 -57 -34 -42 -32 -50 -34 -121 -34 -42 0
-80 -4 -84 -8 -5 -5 -6 -89 -3 -187 4 -171 6 -180 28 -202 31 -31 64 -86 64
-106 0 -33 317 -258 460 -325 120 -58 313 -134 338 -134 21 0 22 3 17 83 -13
217 -14 384 -4 422 6 22 24 57 41 79 l31 39 -7 220 c-3 121 -9 224 -12 228 -3
5 -26 8 -52 7 -26 -1 -109 -4 -185 -7z m-68 -167 c13 -13 -10 -12 -35 2 l-29
16 30 -7 c16 -4 32 -9 34 -11z"/>
<path d="M3283 9275 c-144 -17 -211 -30 -303 -61 -271 -91 -419 -274 -453
-562 -8 -72 -7 -224 7 -660 24 -813 34 -916 97 -1059 11 -24 19 -45 19 -49 0
-12 66 -101 100 -135 68 -68 179 -120 314 -146 62 -12 115 -14 229 -9 l148 6
-3 -133 -3 -134 32 -36 32 -37 -6 -147 -6 -146 117 101 c219 189 503 355 738
431 20 7 39 18 41 25 3 8 9 61 13 118 6 103 6 105 -17 122 -15 10 -43 16 -76
16 -29 0 -53 3 -53 6 0 3 20 29 45 56 52 58 108 167 130 253 21 82 34 261 26
371 l-6 90 -73 80 c-323 348 -479 749 -458 1171 4 76 8 156 9 177 2 39 1 40
-63 72 -60 29 -69 38 -121 120 -31 49 -67 95 -80 101 -31 16 -226 15 -376 -2z
m257 -577 c66 -45 74 -78 81 -313 4 -115 12 -340 18 -500 6 -159 13 -364 14
-455 2 -150 0 -169 -19 -205 -28 -54 -73 -77 -142 -72 -38 3 -59 10 -78 28
-50 46 -58 79 -65 294 -4 110 -13 360 -20 555 -19 500 -18 567 4 612 38 76
138 103 207 56z"/>
<path d="M4140 9038 c-30 -6 -59 -17 -63 -25 -6 -9 -21 -13 -45 -11 -42 4 -44
-2 -67 -147 -62 -385 92 -821 418 -1189 57 -65 72 -57 63 31 -4 35 -11 216
-16 401 -16 566 -31 678 -113 832 -65 124 -69 127 -177 108z"/>
<path d="M9840 8388 c0 -66 -14 -187 -39 -338 -11 -61 -44 -190 -66 -254 -19
-54 -19 -71 5 -134 58 -152 -10 -312 -133 -312 -44 0 -46 -1 -69 -47 -14 -27
-34 -65 -46 -85 -12 -21 -31 -55 -43 -75 -37 -65 -111 -166 -176 -239 -35 -40
-63 -77 -63 -83 0 -12 11 -15 125 -30 100 -14 337 -14 424 -1 157 24 200 33
276 57 259 83 433 254 493 488 26 100 32 157 32 300 0 178 -16 280 -63 405
-63 168 -204 282 -452 365 -84 28 -179 55 -195 55 -6 0 -10 -33 -10 -72z"/>
<path d="M9050 7738 c-146 -4 -294 -11 -329 -14 l-64 -6 6 -150 c4 -87 12
-157 18 -164 6 -8 22 -14 36 -14 38 0 37 -24 -2 -91 -43 -73 -42 -93 3 -97 17
-2 32 -6 32 -9 0 -3 -13 -21 -30 -40 -36 -40 -39 -82 -9 -109 12 -10 27 -30
34 -44 8 -16 45 -42 94 -68 81 -43 274 -112 313 -112 26 0 59 34 146 152 85
114 169 243 211 323 l31 60 -30 28 c-46 43 -59 86 -66 220 -4 67 -11 128 -17
135 -6 7 -30 11 -61 10 -28 -1 -170 -5 -316 -10z m-244 -280 c-19 -26 -22 -7
-4 25 7 13 13 17 15 10 3 -7 -3 -23 -11 -35z"/>
<path d="M7935 7643 c-22 -19 -56 -47 -75 -62 -19 -14 -37 -29 -40 -32 -8 -11
-141 -94 -200 -126 -115 -61 -353 -143 -419 -143 -11 0 -32 -10 -46 -22 l-26
-23 8 -222 c5 -122 13 -226 18 -231 9 -8 334 -2 775 16 l175 7 -2 229 -2 229
-36 35 c-46 47 -55 81 -62 245 -4 90 -10 137 -17 137 -6 0 -29 -17 -51 -37z"/>
<path d="M4597 7303 c-7 -11 17 -119 42 -187 44 -125 151 -260 242 -304 24
-12 58 -31 74 -42 45 -30 231 -88 342 -106 176 -28 449 -17 509 21 12 8 48 21
80 31 73 21 184 72 184 84 0 5 -21 11 -47 15 -260 31 -507 87 -759 170 -76 25
-148 50 -159 55 -11 4 -45 19 -75 31 -93 39 -210 103 -318 172 -109 71 -108
71 -115 60z"/>
<path d="M6010 6535 c-36 -8 -108 -36 -160 -61 -162 -80 -304 -242 -366 -416
-29 -82 -42 -211 -90 -855 -4 -51 -3 -93 1 -93 4 0 24 13 44 29 125 98 434
266 616 335 55 21 109 42 121 46 18 7 22 19 27 92 4 45 7 109 7 141 0 32 6 70
14 85 53 103 185 107 232 8 16 -32 15 -57 -10 -382 -15 -192 -31 -394 -36
-449 -5 -55 -19 -221 -30 -370 -22 -293 -29 -331 -64 -372 -50 -57 -149 -23
-188 64 -18 40 -18 53 -8 176 35 442 70 941 65 945 -11 11 -150 -43 -285 -110
-185 -91 -435 -258 -501 -334 -13 -15 -21 -75 -38 -289 -26 -337 -26 -411 -1
-509 39 -154 154 -315 277 -389 29 -17 53 -35 53 -39 0 -5 -66 -8 -147 -8
-152 -1 -231 -10 -242 -28 -16 -26 -224 -683 -218 -689 12 -11 149 26 204 56
29 16 54 26 57 23 17 -16 0 -46 -46 -81 -60 -45 -119 -72 -195 -90 -29 -7 -56
-18 -61 -24 -5 -7 -47 -127 -92 -267 -45 -140 -95 -288 -112 -329 -16 -40 -26
-76 -23 -79 3 -3 -1 -12 -9 -21 -8 -9 -32 -61 -54 -116 -22 -54 -43 -100 -48
-102 -5 -2 -16 10 -25 26 -16 27 -21 29 -108 35 -385 30 -981 313 -1210 572
-23 26 -44 44 -48 40 -6 -6 -39 -511 -63 -968 -12 -234 -27 -297 -75 -312 -50
-14 -60 -22 -67 -52 -12 -50 -31 -445 -22 -454 13 -11 832 -22 839 -10 5 9 45
399 45 447 0 16 -13 31 -39 47 -61 39 -64 59 -51 323 12 241 15 273 29 273 5
0 18 -30 29 -67 72 -240 277 -919 293 -970 l21 -63 236 0 c130 0 316 -3 412
-7 152 -5 177 -4 188 10 7 8 93 255 190 547 98 292 182 530 187 528 6 -2 10
-104 10 -266 l0 -264 -35 -29 c-19 -17 -41 -35 -48 -40 -13 -11 -10 -189 7
-404 l6 -80 392 -3 c374 -2 393 -1 402 16 7 12 8 108 4 263 l-6 244 -44 44
c-25 24 -50 55 -56 70 -9 18 -13 190 -17 601 l-5 575 -46 70 c-179 274 -341
663 -284 682 6 1 23 -37 38 -86 33 -104 77 -194 183 -369 117 -194 112 -194
108 -6 -4 174 5 216 55 240 13 7 28 18 32 26 5 7 9 122 9 255 l0 243 23 4 c12
3 126 8 252 11 316 8 393 13 425 30 102 53 223 294 261 520 l12 70 -68 100
c-103 151 -162 295 -167 404 -3 84 26 68 90 -51 79 -146 153 -254 162 -237 4
8 10 89 13 182 4 125 3 167 -6 167 -175 4 -381 24 -477 46 -81 18 -124 43
-145 84 -15 29 -15 34 0 56 8 13 39 36 68 51 52 28 53 28 310 33 284 6 277 4
277 70 0 19 5 150 11 290 14 298 7 353 -63 500 -35 71 -56 100 -137 180 -195
193 -388 262 -766 273 -124 4 -187 2 -235 -8z"/>
<path d="M7347 6479 c-17 -28 -43 -451 -29 -476 5 -8 20 -20 33 -27 42 -20 49
-66 38 -238 -6 -84 -17 -222 -25 -307 -13 -128 -13 -155 -2 -162 36 -23 289 7
478 57 274 73 502 170 546 232 11 16 11 27 -1 67 -8 26 -51 188 -95 359 -45
171 -86 323 -91 337 -6 15 -43 51 -83 81 l-72 54 -260 18 c-142 9 -296 20
-340 23 -78 6 -82 5 -97 -18z"/>
<path d="M9276 6334 c4 -67 1 -106 -13 -159 -30 -115 -48 -70 -26 62 5 29 7
71 4 94 -5 37 -18 5 -145 -363 -77 -221 -144 -415 -150 -430 -8 -21 -5 -41 12
-90 33 -97 42 -169 42 -336 0 -168 -16 -304 -57 -477 -49 -209 -155 -466 -195
-473 -26 -5 -22 20 10 75 153 260 236 754 181 1078 -13 76 -18 95 -28 95 -5 0
-30 -62 -57 -137 -60 -174 -197 -496 -211 -500 -10 -4 -143 378 -155 442 -2
13 -10 19 -22 17 -30 -5 -63 6 -70 24 -9 23 20 64 44 64 20 0 28 24 12 34 -4
3 -33 -12 -64 -32 -49 -32 -56 -40 -51 -62 6 -33 -7 -43 -81 -64 -40 -12 -62
-14 -69 -7 -7 7 -23 3 -51 -11 -23 -11 -42 -22 -44 -23 -1 -1 5 -17 15 -34 18
-32 18 -32 -5 -51 -12 -10 -46 -23 -74 -29 -43 -10 -54 -9 -66 3 -13 12 -13
18 -2 31 7 8 11 18 8 20 -2 3 -51 -11 -107 -30 -134 -45 -267 -73 -417 -87
l-122 -12 -7 -51 c-4 -27 -6 -151 -6 -275 l1 -224 33 -34 c47 -49 203 -165
264 -195 28 -15 55 -31 58 -37 9 -15 43 -27 155 -56 132 -33 136 -33 144 16 7
46 -5 76 -34 85 -51 16 -58 74 -40 350 17 252 22 258 70 83 87 -321 162 -584
168 -590 4 -4 59 -10 122 -13 63 -3 127 -8 142 -11 38 -8 47 -42 18 -66 -19
-15 -41 -18 -136 -18 -133 0 -126 9 -90 -122 13 -47 22 -89 18 -92 -9 -10
-270 -7 -276 3 -3 5 -1 59 6 120 6 61 9 113 6 116 -2 3 -46 14 -97 24 -217 46
-355 110 -512 237 -43 35 -82 64 -87 64 -4 0 -20 -13 -35 -28 -23 -24 -27 -37
-27 -88 -1 -32 -5 -90 -10 -129 -5 -38 -12 -125 -16 -192 l-7 -123 -371 0
c-276 0 -375 -3 -384 -12 -17 -17 -17 -498 1 -520 6 -8 28 -25 48 -36 19 -12
41 -33 47 -47 9 -18 12 -138 12 -410 l0 -384 32 -37 c136 -154 721 -606 764
-590 14 5 15 33 13 201 -2 106 0 197 4 201 4 5 114 10 245 12 130 2 240 7 244
10 10 10 12 482 2 492 -5 5 -119 12 -254 17 l-245 8 0 220 0 220 60 3 c83 4
119 -4 153 -37 36 -33 52 -86 61 -196 l6 -80 75 -6 c41 -4 208 -10 371 -14
284 -7 296 -7 303 11 9 21 25 322 19 341 -3 6 -48 26 -101 44 -222 76 -618
301 -802 456 -75 63 -210 206 -210 222 0 25 26 6 137 -100 116 -109 222 -191
338 -261 122 -72 333 -177 445 -221 135 -53 188 -65 194 -46 3 8 9 120 13 249
l8 235 100 0 100 0 -1 -25 c-1 -14 -4 -111 -8 -216 l-7 -192 32 -37 c18 -20
35 -53 38 -73 6 -34 10 -37 66 -54 63 -19 180 -37 425 -64 80 -9 164 -18 188
-21 33 -4 42 -9 42 -24 0 -17 -8 -19 -85 -19 -87 0 -286 24 -503 61 -68 12
-124 20 -126 18 -2 -2 -5 -83 -7 -179 -3 -168 -2 -182 33 -355 20 -99 43 -211
52 -248 l16 -68 -62 -57 c-80 -76 -73 -97 11 -32 70 55 81 59 81 33 0 -10 -19
-31 -42 -48 -23 -16 -57 -42 -74 -57 l-32 -28 0 -150 0 -150 27 19 c14 11 39
33 55 50 17 17 33 31 38 31 22 0 1 -33 -61 -96 -52 -52 -72 -80 -81 -113 -15
-57 -33 -84 -68 -101 -62 -32 -62 -31 -62 -186 l0 -143 30 -34 c55 -63 59
-107 9 -107 -22 0 -30 -5 -35 -26 -13 -51 6 -56 208 -59 100 -2 320 -6 488 -9
352 -8 344 -17 92 96 -87 38 -163 76 -171 83 -11 11 -8 27 20 105 18 51 38 94
45 97 7 2 31 -5 54 -17 23 -12 43 -20 45 -18 2 2 10 20 19 42 21 50 20 85 -1
93 -10 4 -21 10 -24 15 -3 5 -21 11 -40 14 -33 6 -34 5 -52 -44 -9 -27 -24
-53 -32 -56 -24 -9 -145 55 -151 79 -3 12 23 100 61 206 79 223 91 249 109
249 14 0 106 -50 133 -72 9 -7 7 -22 -8 -60 -16 -41 -17 -53 -7 -60 18 -13 75
-38 86 -38 9 0 18 207 28 675 3 149 9 387 13 530 8 290 12 309 77 347 19 11
36 30 39 42 2 11 10 116 17 231 l13 210 268 3 267 2 -2 242 -3 242 -33 10
c-71 20 -67 -31 -64 866 4 886 0 837 67 861 25 9 37 22 44 43 8 25 18 383 12
448 0 10 -10 22 -20 28 -12 6 -172 13 -405 16 l-385 7 5 -89z m-1027 -1201
c13 -25 -4 -53 -33 -53 -28 0 -40 24 -26 51 13 24 46 25 59 2z m94 -375 c53
-64 -55 -146 -114 -87 -26 26 -20 75 13 102 28 23 75 16 101 -15z m1038 -70
c1 -13 1 -117 -1 -233 -3 -237 -10 -274 -62 -296 -16 -7 -33 -20 -36 -30 -4
-10 -3 -108 2 -219 7 -156 6 -204 -3 -210 -16 -9 -253 0 -265 11 -9 8 14 78
179 534 40 110 94 260 120 333 46 128 64 156 66 110z m-658 -2729 c15 -25 -17
-71 -46 -67 -28 4 -35 43 -11 69 20 23 42 21 57 -2z"/>
<path d="M4175 6169 c-188 -100 -550 -502 -681 -756 l-38 -74 -7 -282 c-10
-367 -26 -440 -103 -472 -18 -8 -37 -20 -43 -27 -7 -8 -12 -103 -14 -261 -3
-211 -1 -250 11 -257 8 -4 128 -13 265 -19 460 -20 998 -56 1375 -91 172 -16
176 -15 189 21 6 18 11 45 11 60 0 17 12 42 29 61 15 18 33 49 39 68 17 53 31
245 38 533 6 217 5 260 -7 268 -8 5 -54 9 -104 9 -49 0 -142 4 -205 10 -63 5
-175 10 -248 12 -162 4 -161 4 -160 -112 1 -178 -85 -314 -207 -328 -59 -6
-123 21 -132 56 -3 14 -3 91 1 171 17 383 46 1003 51 1061 2 36 6 132 7 215 3
169 2 171 -67 134z"/>
<path d="M3244 3825 c-17 -26 -17 -28 9 -80 38 -77 138 -190 299 -337 132
-120 415 -257 614 -297 164 -32 184 -34 184 -19 0 7 -43 168 -97 357 -76 266
-102 347 -118 356 -20 13 -245 27 -671 41 l-202 6 -18 -27z"/>
<path d="M3227 3619 c-4 -13 -7 -88 -7 -166 l0 -143 38 -19 c49 -25 71 -51 74
-87 1 -16 -1 -98 -6 -181 -10 -184 -5 -197 106 -318 177 -191 367 -295 622
-340 144 -25 428 -16 487 16 14 7 6 43 -66 292 -45 157 -85 292 -88 300 -3 9
-21 18 -39 21 -18 3 -69 10 -113 16 -118 17 -283 73 -430 145 -207 102 -364
232 -536 445 -35 43 -36 43 -42 19z"/>
<path d="M8617 2443 c-9 -55 -8 -323 1 -323 6 0 23 15 40 34 l30 34 -28 137
c-16 76 -31 139 -34 142 -2 2 -6 -8 -9 -24z"/>
<path d="M6497 2093 c-3 -38 -6 -189 -6 -336 0 -147 -4 -275 -9 -283 -4 -8
-24 -22 -43 -32 l-34 -17 -3 -241 c-2 -185 1 -244 10 -252 15 -12 344 -19
1250 -28 l647 -6 12 25 c8 17 9 41 3 73 -8 44 -12 49 -44 58 -204 54 -565 210
-730 316 -41 26 -133 84 -205 128 -235 145 -510 359 -711 554 -61 60 -115 108
-121 108 -6 0 -13 -30 -16 -67z"/>
<path d="M7634 1930 c-17 -4 -35 -10 -41 -13 -5 -3 -13 -55 -16 -114 -4 -68
-14 -134 -27 -177 -21 -68 -21 -70 -3 -84 24 -19 228 -116 273 -130 19 -6 92
-29 161 -52 70 -22 129 -40 132 -40 3 0 3 27 0 59 -4 42 -1 72 11 100 12 32
13 41 3 41 -19 0 -67 53 -67 73 0 9 19 29 43 46 67 45 74 57 47 79 -21 17 -21
18 -4 62 26 69 36 76 86 63 24 -6 44 -10 46 -8 2 1 4 22 5 46 l2 44 -117 3
-118 3 0 -26 c0 -36 19 -39 79 -15 62 24 104 26 121 5 18 -21 6 -30 -38 -27
-20 2 -57 -4 -81 -12 -24 -9 -54 -16 -66 -16 -27 0 -55 29 -55 59 0 12 -6 23
-12 26 -24 7 -333 12 -364 5z"/>
<path d="M9731 1891 c-14 -4 -26 -12 -28 -18 -4 -11 47 -53 65 -53 22 0 23
-23 2 -88 -31 -93 -45 -114 -74 -106 -19 4 -25 0 -36 -28 -8 -18 -22 -46 -33
-61 -10 -16 -18 -30 -16 -31 2 -2 19 -11 37 -20 l33 -17 25 55 c14 31 29 58
34 61 13 8 180 -56 180 -70 0 -6 -6 -25 -14 -41 -8 -16 -44 -109 -80 -207 -72
-195 -82 -217 -97 -217 -15 0 -132 59 -148 75 -11 11 -11 21 4 65 10 31 14 55
8 59 -71 48 -85 53 -98 40 -7 -8 -20 -40 -28 -71 l-15 -58 49 -30 c37 -23 49
-36 49 -55 0 -26 -36 -132 -53 -153 -5 -7 -7 -16 -3 -19 12 -12 884 -9 895 2
14 16 37 926 23 952 -11 20 -21 21 -279 27 -148 3 -293 8 -323 10 -30 2 -66 1
-79 -3z"/>
<path d="M9060 1609 c-40 -110 -70 -202 -69 -203 2 -2 27 -15 56 -30 59 -29
58 -30 83 48 l12 38 47 -6 c46 -6 48 -6 64 29 9 20 17 54 17 77 0 35 -5 46
-32 69 -33 27 -33 27 -20 74 7 25 10 51 6 56 -5 8 -77 49 -87 49 -3 0 -37 -90
-77 -201z"/>
<path d="M9688 1744 c-3 -73 3 -85 26 -52 27 38 32 89 11 105 -11 7 -22 13
-26 13 -4 0 -9 -30 -11 -66z"/>
<path d="M8155 1629 c-32 -32 -46 -52 -39 -59 15 -15 109 56 109 82 0 35 -17
29 -70 -23z"/>
<path d="M8200 1542 c-54 -65 -70 -176 -32 -214 18 -18 26 -20 40 -12 34 21
72 89 81 142 11 73 5 99 -30 111 -26 9 -31 7 -59 -27z"/>
<path d="M9733 1495 l-27 -55 -48 0 c-44 0 -48 -2 -54 -27 -3 -16 -10 -46 -16
-67 -10 -41 -6 -48 42 -76 12 -7 13 -15 3 -52 -6 -24 -14 -50 -18 -59 -4 -12
9 -22 56 -42 34 -15 64 -25 66 -24 8 8 143 384 143 398 0 10 -20 24 -56 38
-31 11 -58 21 -60 21 -2 0 -16 -25 -31 -55z"/>
<path d="M8285 1352 c-16 -26 -31 -50 -33 -54 -2 -5 12 -8 32 -8 l36 0 0 55
c0 30 -1 55 -2 55 -2 0 -16 -22 -33 -48z"/>
<path d="M9314 1376 c-9 -24 0 -51 18 -54 19 -4 42 33 34 54 -7 18 -45 18 -52
0z"/>
<path d="M9440 1330 c-12 -23 -6 -40 15 -40 17 0 38 36 30 50 -10 17 -34 11
-45 -10z"/>
<path d="M9273 1233 l-19 -26 -47 18 c-26 10 -49 16 -51 14 -7 -10 -48 -130
-45 -133 12 -8 347 -156 355 -156 10 0 44 93 44 118 0 6 -20 23 -44 37 -35 20
-46 33 -48 56 -2 25 -13 35 -64 64 l-61 33 -20 -25z"/>
</g>
</svg>
