<svg viewBox="0 0 24 24" fill="none" xmlns="http://www.w3.org/2000/svg">
<path d="M20.8974 3.10333C19.9602 2.16608 18.4406 2.16608 17.5033 3.10333L8.40039 12.2063V15.6004H11.7945L20.8974 6.49745C21.8347 5.56019 21.8347 4.04059 20.8974 3.10333Z" fill="#0D0D0D"/>
<path fill-rule="evenodd" clip-rule="evenodd" d="M2.40039 7.20039C2.40039 5.87491 3.47491 4.80039 4.80039 4.80039H9.60039C10.2631 4.80039 10.8004 5.33765 10.8004 6.00039C10.8004 6.66313 10.2631 7.20039 9.60039 7.20039H4.80039V19.2004H16.8004V14.4004C16.8004 13.7376 17.3376 13.2004 18.0004 13.2004C18.6631 13.2004 19.2004 13.7376 19.2004 14.4004V19.2004C19.2004 20.5259 18.1259 21.6004 16.8004 21.6004H4.80039C3.47491 21.6004 2.40039 20.5259 2.40039 19.2004V7.20039Z" fill="currentColor"/>
</svg>
