<svg viewBox="0 0 24 24" fill="none" xmlns="http://www.w3.org/2000/svg">
<path fill-rule="evenodd" clip-rule="evenodd" d="M3.59961 5.9998C3.59961 5.33706 4.13687 4.7998 4.79961 4.7998H19.1996C19.8624 4.7998 20.3996 5.33706 20.3996 5.9998C20.3996 6.66255 19.8624 7.1998 19.1996 7.1998H4.79961C4.13687 7.1998 3.59961 6.66255 3.59961 5.9998Z" fill="currentColor"/>
<path fill-rule="evenodd" clip-rule="evenodd" d="M3.59961 11.9998C3.59961 11.3371 4.13687 10.7998 4.79961 10.7998H11.9996H19.1996C19.8624 10.7998 20.3996 11.3371 20.3996 11.9998C20.3996 12.6625 19.8624 13.1998 19.1996 13.1998H4.79961C4.13687 13.1998 3.59961 12.6625 3.59961 11.9998Z" fill="currentColor"/>
<path fill-rule="evenodd" clip-rule="evenodd" d="M3.59961 17.9998C3.59961 17.3371 4.13687 16.7998 4.79961 16.7998H19.1996C19.8624 16.7998 20.3996 17.3371 20.3996 17.9998C20.3996 18.6625 19.8624 19.1998 19.1996 19.1998H4.79961C4.13687 19.1998 3.59961 18.6625 3.59961 17.9998Z" fill="currentColor"/>
</svg>
